<?xml version="1.0"?>
<svg xmlns="http://www.w3.org/2000/svg" xmlns:xlink="http://www.w3.org/1999/xlink" version="1.1" id="Layer_1" x="0px" y="0px" viewBox="0 0 491.268 491.268" style="enable-background:new 0 0 491.268 491.268;" xml:space="preserve" width="40px" height="200px" class=""><g><path style="fill:#B20040" d="M383.48,137.846C383.48,61.842,321.646,0,245.634,0S107.788,61.842,107.788,137.846  c0,48.514,25.253,91.175,63.252,115.744l67.537,163.872c1.182,2.867,3.97,4.734,7.058,4.734c3.104,0,5.9-1.867,7.073-4.734  l67.537-163.879C358.227,229.014,383.48,186.36,383.48,137.846z" data-original="#D60949" class="" data-old_color="#00FF14"/><path style="fill:#B20040" d="M245.634,422.195c3.104,0,5.9-1.867,7.073-4.734l67.537-163.879  c37.983-24.568,63.236-67.222,63.236-115.736C383.48,61.842,321.646,0,245.634,0" data-original="#B20040" class="active-path" data-old_color="#D60949"/><circle style="fill:#B20040" cx="245.634" cy="473.12" r="18.148" data-original="#D60949" class="" data-old_color="#00FF14"/><circle style="fill:#EBF0F2;" cx="245.634" cy="136.578" r="57.951" data-original="#EBF0F2"/><path style="fill:#C6D6DB" d="M245.634,78.627c32.012,0,57.951,25.947,57.951,57.951c0,31.996-25.939,57.951-57.951,57.951" data-original="#C6D6DB" class=""/></g> </svg>
