<?xml version="1.0"?>
<svg xmlns="http://www.w3.org/2000/svg" xmlns:xlink="http://www.w3.org/1999/xlink" version="1.1" id="Layer_1" x="0px" y="0px" viewBox="0 0 345.13 345.13" style="enable-background:new 0 0 345.13 345.13;" xml:space="preserve" width="512px" height="512px" class=""><g><g>
	<path style="fill:#FFFFFF" d="M264.25,301.7c-2.45,3.01-5.08,5.91-7.88,8.71c-23.14,23.14-53.47,34.72-83.8,34.72   s-60.66-11.58-83.81-34.72c-22.86-22.86-34.71-53.2-34.71-83.84c0-21.31,5.74-42.77,17.5-61.94l21.16-34.48L172.57,0l31.67,51.62   l24.28,39.56l45.06,73.45C300.18,207.99,295.971,263.03,264.25,301.7z" data-original="#76CDCE" class="active-path" data-old_color="#F6F8F8"/>
	<path style="fill:#FFFFFF" d="M264.25,301.7L92.71,130.15L172.57,0l31.67,51.62l24.28,39.56l45.06,73.45   C300.18,207.99,295.971,263.03,264.25,301.7z" data-original="#96E0DE" class="" data-old_color="#DBDFDF"/>
</g></g> </svg>
