<?xml version="1.0"?>
<svg xmlns="http://www.w3.org/2000/svg" xmlns:xlink="http://www.w3.org/1999/xlink" version="1.1" id="Layer_1" x="0px" y="0px" viewBox="0 0 512 512" style="enable-background:new 0 0 512 512;" xml:space="preserve" width="512px" height="512px" class=""><g><g>
	<g>
		<path d="M401.001,194c-61.205,0-110.999,49.793-110.999,110.999c0,33.051,14.399,63.843,39.626,85.014l58.009,113.796    c2.561,5.024,7.724,8.188,13.364,8.188s10.803-3.163,13.364-8.188l58.009-113.796C497.602,368.843,512,338.05,512,304.999    C512,243.795,462.206,194,401.001,194z M401.001,351.999c-25.916,0-47-21.084-47-47s21.084-47,47-47c25.916,0,47,21.084,47,47    S426.917,351.999,401.001,351.999z" data-original="#000000" class="active-path" data-old_color="#FBFAFA" fill="#FFFFFF"/>
	</g>
</g><g>
	<g>
		<path d="M358.138,511.997L305.5,408.739c-28.996-26.663-45.499-64.111-45.499-103.74c0-59.665,37.254-110.789,89.72-131.344    L317.715,12.087c-1.391-7.024-7.553-12.085-14.714-12.085h-80.999v78.999c0,8.284-6.716,15-15,15s-15-6.716-15-15V0.002h-80.999    c-7.155,0-13.313,5.053-14.711,12.07L0.294,494.067c-1.847,9.274,5.258,17.93,14.711,17.93h176.998V368.999    c0-8.284,6.716-15,15-15s15,6.716,15,15v142.999H358.138z M207.002,287.999c-8.284,0-15-6.716-15-15v-95.999    c0-8.284,6.716-15,15-15c8.284,0,15,6.716,15,15V273C222.002,281.284,215.287,287.999,207.002,287.999z" data-original="#000000" class="active-path" data-old_color="#FBFAFA" fill="#FFFFFF"/>
	</g>
</g></g> </svg>
